<?xml version="1.0" encoding="utf-8"?>
<!DOCTYPE svg PUBLIC "-//W3C//DTD SVG 1.1//EN" "http://www.w3.org/Graphics/SVG/1.1/DTD/svg11.dtd">
<svg version="1.1" xmlns="http://www.w3.org/2000/svg" xmlns:xlink="http://www.w3.org/1999/xlink" x="0px" y="0px" viewBox="0 0 1000 1000" enable-background="new 0 0 1000 1000" xml:space="preserve">
<g><g transform="translate(0.000000,511.000000) scale(0.100000,-0.100000)"><path d="M4413.6,4974.7C3499.5,4862,2627.1,4491.9,1913.9,3916c-218.1-176.4-629.8-595.5-786.7-803.8C362.7,2112.3-2.5,835.5,124.9-375.2C245-1492.7,710.6-2492.6,1482.6-3293.9c1475.3-1526.8,3759.4-1928.7,5668.5-995c1352.8,661.7,2325.7,1906.6,2639.4,3369.7c230.4,1080.8,95.6,2190.9-387.2,3173.7C8648.4,3791,7197.6,4803.2,5487,4987C5178.3,5018.8,4737.1,5013.9,4413.6,4974.7z M5592.4,3550.9c713.2-122.5,1345.4-450.9,1874.8-977.8c681.3-678.8,1021.9-1502.3,1024.4-2462.9c0-441.1-41.7-715.6-171.6-1100.4c-401.9-1203.3-1377.3-2065.9-2639.4-2335.5c-330.8-68.6-950.9-76-1279.3-12.3c-745,144.6-1338.1,458.3-1865,982.7c-522,524.4-852.8,1161.6-975.4,1874.8c-49,291.6-51.5,847.9-2.5,1142c154.4,960.7,705.8,1811.1,1529.2,2364.9c360.3,240.2,892.1,450.9,1338.1,524.4C4705.3,3599.9,5310.6,3599.9,5592.4,3550.9z"/><path d="M3384.4,2335.3c-44.1-31.9-105.4-88.2-132.3-125c-51.5-68.6-51.5-78.4-51.5-2100.2c0-2021.8,0-2031.6,51.5-2100.3c27-36.8,88.2-93.1,132.3-122.5c76-53.9,105.4-56.4,526.9-56.4s450.9,2.5,529.4,56.4c46.6,29.4,107.8,102.9,139.7,164.2l53.9,107.8V110.1v1950.8l-53.9,107.8c-31.9,61.3-93.1,134.8-139.7,164.2c-78.4,53.9-107.8,56.4-529.4,56.4S3460.3,2386.8,3384.4,2335.3z"/><path d="M5565.5,2332.9c-46.6-29.4-105.4-93.1-132.3-139.7c-51.5-85.8-51.5-112.7-51.5-2083.1c0-1970.4,0-1997.3,51.5-2083.1c27-46.6,88.2-110.3,132.3-142.1c83.3-53.9,98-56.4,556.3-49l470.5,7.3l88.2,85.8c46.6,46.6,98,122.5,112.7,171.5c14.7,56.4,22.1,767.1,17.2,2063.5c-7.3,1960.6-7.3,1977.7-58.8,2046.3c-27,36.8-88.2,93.1-132.3,125c-76,51.5-105.4,53.9-526.9,53.9S5641.4,2386.8,5565.5,2332.9z"/></g></g>
</svg>
